Coordinates
version=1
nRows=8
nColumns=63
inDegrees=yes

Units are S.I. units (second, meters, Newtons, ...)
If the header above contains a line with 'inDegrees', this indicates whether rotational values are in degrees (yes) or radians (no).

endheader
time	pelvis_tilt	pelvis_list	pelvis_rotation	pelvis_tx	pelvis_ty	pelvis_tz	hip_flexion_r	hip_adduction_r	hip_rotation_r	knee_angle_r	knee_angle_r_beta	ankle_angle_r	subtalar_angle_r	mtp_angle_r	hip_flexion_l	hip_adduction_l	hip_rotation_l	knee_angle_l	knee_angle_l_beta	ankle_angle_l	subtalar_angle_l	mtp_angle_l	L5_S1_Flex_Ext	L5_S1_Lat_Bending	L5_S1_axial_rotation	L4_L5_Flex_Ext	L4_L5_Lat_Bending	L4_L5_axial_rotation	L3_L4_Flex_Ext	L3_L4_Lat_Bending	L3_L4_axial_rotation	L2_L3_Flex_Ext	L2_L3_Lat_Bending	L2_L3_axial_rotation	L1_L2_Flex_Ext	L1_L2_Lat_Bending	L1_L2_axial_rotation	L1_T12_Flex_Ext	L1_T12_Lat_Bending	L1_T12_axial_rotation	Abs_r3	Abs_r2	Abs_r1	Abs_t1	Abs_t2	neck_flexion	neck_bending	neck_rotation	arm_flex_r	arm_add_r	arm_rot_r	elbow_flex_r	pro_sup_r	wrist_flex_r	wrist_dev_r	arm_flex_l	arm_add_l	arm_rot_l	elbow_flex_l	pro_sup_l	wrist_flex_l	wrist_dev_l
      2.30508475	      2.94949505	     -2.51554427	    100.03312935	      0.26303026	      0.70713443	      0.83293561	     -2.14168756	      6.74948889	     -1.81661166	      4.30902906	      0.07520674	     25.80541317	     -7.80290522	      0.00000000	      0.96935365	     -4.30360455	     -8.86048855	     10.54026490	      0.18396233	     34.02712176	      8.87152070	      0.00000000	     -0.24221473	      0.48826452	     -1.50421533	     -0.44981698	      0.64939181	     -1.59822878	     -0.39793458	      1.18716635	     -1.59822878	     -0.27682722	      1.18716635	     -1.31618841	     -0.22492060	      0.99566901	     -1.22217495	     -0.13840150	      0.75632174	     -1.12816149	     -1.73011561	      5.52334588	     -8.36599437	      0.00000000	      0.00000000	     12.15519050	     -3.05623805	      5.06479686	     -4.58392802	    -26.44766531	     22.06119246	     73.53959093	     79.99143052	     -6.08067980	      4.51205985	     -2.39374292	    -24.82188544	     12.54453626	     86.60965652	     88.63449284	     -6.64175562	      4.94197722
      2.32203390	      2.98016297	     -2.54429496	    100.20594472	      0.26286587	      0.70767575	      0.83322487	     -1.96418645	      6.78878177	     -1.85112328	      4.55278406	      0.07946107	     25.59681601	     -8.26468527	      0.00000000	      1.09725357	     -4.37942824	     -9.16098476	     10.62378981	      0.18542011	     33.87451649	      9.34810299	      0.00000000	     -0.23954951	      0.48745716	     -1.54621233	     -0.44486739	      0.64831802	     -1.64285060	     -0.39355588	      1.18520333	     -1.64285060	     -0.27378113	      1.18520333	     -1.35293579	     -0.22244567	      0.99402264	     -1.25629752	     -0.13687859	      0.75507114	     -1.15965925	     -1.71107816	      5.51421286	     -8.59956913	      0.00000000	      0.00000000	     11.96409173	     -2.92852131	      5.06776026	     -4.77031252	    -26.59805139	     22.77404673	     71.84705509	     82.27001834	     -6.47915392	      6.35837014	     -1.50253538	    -24.07194268	     11.14558733	     85.55885061	     88.20289121	     -4.14137728	      8.61935403
      2.33898305	      3.07008073	     -2.54864779	    100.18628169	      0.26282282	      0.70811401	      0.83366527	     -1.75343899	      6.85527860	     -2.02639389	      4.90233352	      0.08556186	     25.63212383	     -8.19198378	      0.00000000	      1.17414383	     -4.50503109	     -9.48511382	     10.70789940	      0.18688810	     33.71208648	      9.61869549	      0.00000000	     -0.24723675	      0.50021574	     -1.54882794	     -0.45914337	      0.66528694	     -1.64562969	     -0.40618526	      1.21622456	     -1.64562969	     -0.28256688	      1.21622456	     -1.35522445	     -0.22958405	      1.02003994	     -1.25842270	     -0.14127108	      0.77483418	     -1.16162096	     -1.76598739	      5.65854052	     -8.61411637	      0.00000000	      0.00000000	     11.87929451	     -2.97647269	      5.06366115	     -4.66399435	    -26.75377060	     23.66170690	     70.04067099	     83.98023692	     -6.90313154	      7.63194257	     -0.50607186	    -23.57628981	     10.52398756	     83.91306579	     87.67821215	     -3.16532784	     11.21744219
      2.35593220	      3.13135948	     -2.53785641	    100.05927912	      0.26269949	      0.70854617	      0.83396866	     -1.56198585	      6.87905215	     -2.21654128	      5.28856440	      0.09230286	     25.66742272	     -8.10720956	      0.00000000	      1.19026667	     -4.57403121	     -9.65029182	     10.77519168	      0.18806257	     33.48413093	      9.64345019	      0.00000000	     -0.25207771	      0.51741254	     -1.52184537	     -0.46813352	      0.68815868	     -1.61696071	     -0.41413848	      1.25803686	     -1.61696071	     -0.28809962	      1.25803686	     -1.33161470	     -0.23407937	      1.05510766	     -1.23649936	     -0.14403721	      0.80147203	     -1.14138403	     -1.80056590	      5.85307418	     -8.46404740	      0.00000000	      0.00000000	     11.69179661	     -3.13162716	      5.26504877	     -4.38042723	    -26.76742281	     24.40119100	     68.02526258	     84.61835371	     -7.07190361	      8.18016224	      0.40087196	    -23.25850026	     10.45707119	     81.68390746	     87.46859668	     -3.16955964	     12.38063946
      2.37288136	      3.19296469	     -2.52103401	     99.46222835	      0.26295651	      0.70883844	      0.83439476	     -1.33974187	      6.83491009	     -2.50245794	      5.77900992	      0.10086275	     26.03547433	     -7.12096643	      0.00000000	      1.09207327	     -4.62700519	    -10.18899974	     10.75904936	      0.18778084	     33.36173434	      9.65119317	      0.00000000	     -0.26847088	      0.54295230	     -1.41824370	     -0.49857727	      0.72212656	     -1.50688393	     -0.44107081	      1.32013422	     -1.50688393	     -0.30683537	      1.32013422	     -1.24096324	     -0.24930206	      1.10718833	     -1.15232301	     -0.15340426	      0.84103311	     -1.06368278	     -1.91766064	      6.14198502	     -7.88784599	      0.00000000	      0.00000000	     11.83042353	     -3.47694966	      5.68458624	     -3.72029891	    -26.79607304	     25.39125777	     66.00218370	     85.51101517	     -7.94630983	      8.04700739	      1.13010780	    -22.94678083	     10.36984783	     79.37692923	     87.30199101	     -3.21897066	     14.08561514
      2.38983051	      3.22222728	     -2.53653020	     98.82309110	      0.26322044	      0.70905199	      0.83495113	     -1.06441876	      6.72279825	     -3.23279698	      6.30772859	      0.11009063	     26.50484702	     -5.56630386	      0.00000000	      1.02006095	     -4.64193892	    -10.82864228	     10.74753804	      0.18757993	     33.26845664	      9.73613877	      0.00000000	     -0.27472376	      0.56669473	     -1.30157006	     -0.51018950	      0.75370399	     -1.38291819	     -0.45134367	      1.37786157	     -1.38291819	     -0.31398179	      1.37786157	     -1.13887380	     -0.25510848	      1.15560390	     -1.05752567	     -0.15697716	      0.87781014	     -0.97617755	     -1.96232435	      6.41056416	     -7.23894221	      0.00000000	      0.00000000	     11.77006933	     -3.80165011	      6.27310182	     -2.79756964	    -26.72003445	     26.56266539	     63.77195540	     85.76363854	     -8.99158637	      7.21168860	      1.71777582	    -22.66614535	     10.54797292	     76.82946372	     87.38921093	     -3.96288974	     14.85098582
      2.40677966	      3.23522146	     -2.54564146	     98.47507746	      0.26303234	      0.70919631	      0.83576680	     -0.78576961	      6.62382596	     -3.63167565	      6.81130358	      0.11887967	     26.73698933	     -4.96979982	      0.00000000	      1.06971519	     -4.63926981	    -11.09898402	     10.90561137	      0.19033883	     33.28285642	      9.69105161	      0.00000000	     -0.27519914	      0.58897442	     -1.22080836	     -0.51107233	      0.78333598	     -1.29710888	     -0.45212467	      1.43203241	     -1.29710888	     -0.31452510	      1.43203241	     -1.06820731	     -0.25554993	      1.20103664	     -0.99190679	     -0.15724879	      0.91232138	     -0.91560627	     -1.96571997	      6.66259645	     -6.78976985	      0.00000000	      0.00000000	     11.42465292	     -4.11995561	      6.83186542	     -1.76281376	    -26.54663361	     27.58009461	     61.52540943	     86.01010846	     -9.24031390	      6.90465533	      2.30227066	    -22.42291639	     10.95105895	     74.30844991	     87.52695321	     -4.62234859	     15.55305306
      2.42372881	      3.22888737	     -2.63690626	     97.96542034	      0.26289006	      0.70927694	      0.83681743	     -0.33381529	      6.26909330	     -6.81415501	      7.53715302	      0.13154814	     27.79969680	     -0.18011190	      0.00000000	      1.15136389	     -4.59986629	    -11.71614757	     10.99807608	      0.19195264	     33.26864483	      9.85325619	      0.00000000	     -0.27324497	      0.60691502	     -1.12938666	     -0.50744324	      0.80719697	     -1.19997333	     -0.44891417	      1.47565317	     -1.19997333	     -0.31229168	      1.47565317	     -0.98821333	     -0.25373528	      1.23762110	     -0.91762666	     -0.15613218	      0.94011136	     -0.84704000	     -1.95176153	      6.86554407	     -6.28130981	      0.00000000	      0.00000000	     11.37426898	     -4.24374898	      7.49908575	     -0.25692818	    -26.57792605	     29.86633070	     59.00211182	     85.86492056	    -10.27024976	      5.58017046	      2.68561261	    -22.10442283	     11.35236703	     72.26744479	     87.56488889	     -6.16265089	     16.27111976
